<svg width="20" height="21" viewBox="0 0 20 21" fill="none" xmlns="http://www.w3.org/2000/svg">
<path d="M19.4336 14.4707C19.7461 14.627 19.9805 14.9785 19.9805 15.3691C19.9805 15.4082 19.9805 15.4863 19.9805 15.5645L19.043 19.627C18.9258 20.0566 18.5742 20.3301 18.1445 20.3301C8.10547 20.3301 0.0195312 12.2441 0.0195312 2.20508C0.0195312 1.77539 0.292969 1.42383 0.722656 1.30664L4.78516 0.369141C4.86328 0.369141 4.94141 0.330078 4.98047 0.330078C5.37109 0.330078 5.72266 0.564453 5.87891 0.916016L7.75391 5.29102C7.79297 5.4082 7.83203 5.52539 7.83203 5.64258C7.83203 5.95508 7.67578 6.22852 7.48047 6.38477L5.09766 8.33789C6.54297 11.3848 8.96484 13.8066 12.0117 15.252L13.9648 12.8691C14.1211 12.6738 14.3945 12.5176 14.668 12.5176C14.8242 12.5176 14.9414 12.5566 15.0586 12.5957L19.4336 14.4707Z" fill="#2C2E65"/>
</svg>
