<svg width="21" height="16" viewBox="0 0 21 16" fill="none" xmlns="http://www.w3.org/2000/svg">
<path d="M19.6289 5.79102C19.7852 5.67383 20.0195 5.79102 20.0195 5.98633V13.9551C20.0195 15.0098 19.1602 15.8301 18.1445 15.8301H1.89453C0.839844 15.8301 0.0195312 15.0098 0.0195312 13.9551V5.98633C0.0195312 5.79102 0.214844 5.67383 0.371094 5.79102C1.26953 6.49414 2.40234 7.35352 6.38672 10.2441C7.20703 10.8301 8.61328 12.1191 10.0195 12.1191C11.3867 12.1191 12.832 10.8301 13.6133 10.2441C17.5977 7.35352 18.7305 6.49414 19.6289 5.79102ZM10.0195 10.8301C9.08203 10.8691 7.79297 9.69727 7.12891 9.22852C1.93359 5.47852 1.54297 5.12695 0.371094 4.18945C0.136719 4.0332 0.0195312 3.75977 0.0195312 3.44727V2.70508C0.0195312 1.68945 0.839844 0.830078 1.89453 0.830078H18.1445C19.1602 0.830078 20.0195 1.68945 20.0195 2.70508V3.44727C20.0195 3.75977 19.8633 4.0332 19.6289 4.18945C18.457 5.12695 18.0664 5.47852 12.8711 9.22852C12.207 9.69727 10.918 10.8691 10.0195 10.8301Z" fill="#2C2E65"/>
</svg>
