<svg width="84" height="83" viewBox="0 0 84 83" fill="none" xmlns="http://www.w3.org/2000/svg">
<path d="M19.99 0C9.32999 0 -0.0100098 9.36 -0.0100098 20C-0.0100098 28.22 4.24999 32.94 8.74999 37.92C12.37 41.92 16.11 46.08 18.07 52.58C18.33 53.42 19.11 54 19.99 54C20.87 54 21.65 53.42 21.91 52.58C23.87 46.08 27.61 41.94 31.23 37.92C35.73 32.94 39.99 28.22 39.99 20C39.99 9.34 30.65 0 19.99 0ZM28.25 35.24C25.41 38.38 22.29 41.84 19.99 46.54C17.69 41.84 14.57 38.38 11.73 35.24C7.58999 30.66 3.98999 26.68 3.98999 20C3.98999 11.62 11.61 4 19.99 4C28.37 4 35.99 11.62 35.99 20C35.99 26.68 32.41 30.66 28.25 35.24ZM83.17 17.88C82.65 17.5 81.99 17.4 81.37 17.6L55.99 25.92L44.61 22.12L43.35 25.92L53.99 29.46V77.44L27.99 70.74V60.04H23.99V70.88L3.98999 77.76V42.04H-0.0100098V80.56C-0.0100098 81.2 0.30999 81.82 0.82999 82.18C1.16999 82.42 1.58999 82.56 1.98999 82.56C2.20999 82.56 2.42999 82.52 2.64999 82.46L26.09 74.4L55.51 82C55.91 82.1 56.33 82.08 56.71 81.94L82.71 72.2C83.49 71.9 84.01 71.16 84.01 70.32V19.5C84.01 18.86 83.71 18.26 83.19 17.88H83.17ZM79.99 68.88L57.99 77.12V29.46L79.99 22.26V68.88ZM19.97 12C15.55 12 11.95 15.58 11.95 19.98C11.95 24.38 15.55 27.96 19.97 27.96C24.39 27.96 27.99 24.38 27.99 19.98C27.99 15.58 24.39 12 19.97 12ZM19.97 23.96C17.75 23.96 15.95 22.18 15.95 19.98C15.95 17.78 17.75 16 19.97 16C22.19 16 23.99 17.78 23.99 19.98C23.99 22.18 22.19 23.96 19.97 23.96Z" fill="#2C2E65"/>
</svg>
