<svg width="26" height="25" viewBox="0 0 26 25" fill="none" xmlns="http://www.w3.org/2000/svg">
<path d="M25.9995 24.3292H25.6978C23.3081 24.3292 20.9184 24.3265 18.5287 24.334C18.3285 24.3345 18.2117 24.2708 18.0933 24.112C15.8517 21.1047 13.6038 18.1016 11.3569 15.098C11.2831 14.9993 11.2077 14.9021 11.118 14.7842C10.6151 15.3264 10.1228 15.8558 9.63211 16.3863C7.25196 18.9582 4.87075 21.529 2.49485 24.1046C2.34616 24.266 2.19853 24.3425 1.97177 24.3361C1.34461 24.3191 0.716381 24.3303 0 24.3303C3.39232 20.6645 6.73844 17.0491 10.0989 13.4183C6.76765 8.96339 3.44171 4.51641 0.0865605 0.0296066C0.192239 0.0189857 0.263399 0.00624063 0.334559 0.00624063C2.75082 0.00517854 5.16707 0.00677168 7.58333 0.00146122C7.7538 0.00146122 7.85257 0.0593452 7.95241 0.1937C10.0256 2.97372 12.1036 5.7495 14.181 8.52581C14.2389 8.60334 14.2995 8.67928 14.4264 8.8439C14.4848 8.74301 14.5193 8.64742 14.5825 8.57891C17.1533 5.79783 19.7278 3.01993 22.2954 0.235652C22.4542 0.0635936 22.613 -0.00597342 22.844 0.00039913C23.3835 0.0152684 23.9236 0.0046475 24.4637 0.00570959C24.5487 0.00570959 24.6336 0.0136753 24.7813 0.0211099C21.6348 3.42086 18.5261 6.77973 15.4014 10.1556C18.9259 14.8691 22.442 19.5705 26 24.3287L25.9995 24.3292ZM22.63 22.6468C22.5461 22.5252 22.4946 22.4456 22.4377 22.3696C20.6901 20.0325 18.9419 17.6954 17.1937 15.3588C13.8353 10.8693 10.4765 6.37985 7.12185 1.8872C7.01087 1.73851 6.90094 1.66894 6.70976 1.67107C5.70131 1.68063 4.69232 1.67532 3.68386 1.67585C3.61217 1.67585 3.54048 1.68647 3.43746 1.69497C3.51446 1.80277 3.56438 1.87499 3.61695 1.94509C7.22328 6.76805 10.8301 11.5915 14.437 16.4145C15.9462 18.433 17.4549 20.4515 18.9695 22.4663C19.03 22.547 19.1431 22.6383 19.2329 22.6389C20.347 22.6506 21.4617 22.6463 22.6295 22.6463L22.63 22.6468Z" fill="#2C2E65"/>
</svg>
