<svg width="90" height="89" viewBox="0 0 90 89" fill="none" xmlns="http://www.w3.org/2000/svg">
<path d="M41.4031 60.58C40.9831 60.58 40.5631 60.72 40.2231 60.98C38.5631 62.22 35.8231 65.06 34.1231 67.14C31.8231 65.9 29.0631 63.3 25.8631 59.42C22.6631 55.54 20.6631 52.32 19.8831 49.82C22.2631 48.54 25.5631 46.42 27.1031 45.02C27.4231 44.74 27.6431 44.36 27.7231 43.94C29.0431 37.56 27.5831 28.82 24.2231 23.12C23.9231 22.62 23.4231 22.26 22.8231 22.16C18.5831 21.46 9.68307 21.78 3.18308 24.72C2.68308 24.94 2.28308 25.38 2.12308 25.9C-1.21692 35.8 -0.276902 53.46 13.3631 70.72C25.6831 85.14 39.6831 88.22 49.4231 88.22C51.6431 88.22 53.6231 88.06 55.3231 87.84C55.8631 87.76 56.3631 87.48 56.6831 87.02C60.6631 81.46 61.6631 74.46 61.8031 69.56C61.8031 68.98 61.5831 68.4 61.1231 68C56.1831 63.6 47.9031 60.52 41.3631 60.56L41.4031 60.58ZM53.9631 83.98C45.3831 84.9 29.8631 83.82 16.4831 68.18C1.28309 48.96 4.52308 32.22 5.68308 28.02C10.9631 25.9 17.8031 25.64 21.2631 25.98C23.6831 30.64 24.7831 37.4 23.9431 42.46C22.1231 43.92 18.4631 46.16 16.8031 46.88C15.9831 47.24 15.5031 48.1 15.6231 48.98C16.1031 52.42 18.4431 56.66 22.7831 61.94C27.1231 67.24 30.8431 70.34 34.1231 71.48C34.9631 71.76 35.9031 71.48 36.4031 70.72C37.4431 69.22 40.3431 66.06 42.1231 64.56C47.2431 64.7 53.7031 67.12 57.8031 70.4C57.6031 74.44 56.7231 79.7 53.9631 83.98ZM45.2631 42.6C46.3231 41.66 47.1631 40.94 47.7031 40.28C48.4031 39.44 49.1831 38.5 49.6231 37.48C50.1031 36.38 50.3231 35.36 50.3231 34.38C50.3231 31.98 48.6431 29.12 44.8831 28.18C41.0831 27.22 36.6431 29.22 34.1231 33.04L37.4631 35.24C39.0231 32.88 41.8031 31.52 43.9031 32.04C46.2631 32.64 46.3231 34.2 46.3231 34.38C46.3231 34.82 46.2031 35.3 45.9431 35.9C45.7231 36.4 45.1231 37.14 44.6231 37.72C44.2831 38.14 43.5031 38.82 42.6031 39.6C42.1031 40.04 41.5631 40.5 41.0631 40.96L34.5431 46.42C34.0831 46.8 33.8231 47.36 33.8231 47.96V50.02C33.8231 51.12 34.7231 52.02 35.8231 52.02H49.8231V48.02H38.8631L43.6831 43.98C44.2231 43.48 44.7431 43.02 45.2231 42.6H45.2631ZM67.8631 42H65.8631V30C65.8631 28.9 64.9631 28 63.8631 28H61.3831C60.7031 28 60.0831 28.34 59.7031 28.9L52.1831 40.42C51.9631 40.74 51.8631 41.12 51.8631 41.52V44C51.8631 45.1 52.7631 46 53.8631 46H61.8631V52H65.8631V46H67.8631V42ZM61.8631 42H55.9431L61.8631 32.92V42ZM47.8631 0H43.8631V8H47.8631V0ZM32.6831 1.98L28.9231 3.34L31.6631 10.86L35.4231 9.5L32.6831 1.98ZM16.0431 11.58L21.1831 17.7L24.2431 15.12L19.1031 9L16.0431 11.58ZM67.4631 72.88L72.6031 79L75.6631 76.42L70.5231 70.3L67.4631 72.88ZM76.0231 63.74L82.9431 67.74L84.9431 64.28L78.0231 60.28L76.0231 63.74ZM80.9631 52.22L88.8431 53.62L89.5431 49.68L81.6631 48.28L80.9631 52.22ZM80.9631 35.78L81.6631 39.72L89.5431 38.34L88.8431 34.4L80.9631 35.78ZM84.9631 23.74L82.9631 20.28L76.0431 24.28L78.0431 27.74L84.9631 23.74ZM67.4631 15.14L70.5231 17.72L75.6631 11.6L72.6031 9.02L67.4631 15.14ZM60.0431 10.86L62.7831 3.34L59.0231 1.98L56.2831 9.5L60.0431 10.86Z" fill="#2C2E65"/>
</svg>
