<svg width="16" height="21" viewBox="0 0 16 21" fill="none" xmlns="http://www.w3.org/2000/svg">
<path d="M7.23828 19.9395C1.53516 11.7363 0.519531 10.877 0.519531 7.83008C0.519531 3.68945 3.83984 0.330078 8.01953 0.330078C12.1602 0.330078 15.5195 3.68945 15.5195 7.83008C15.5195 10.877 14.4648 11.7363 8.76172 19.9395C8.41016 20.4863 7.58984 20.4863 7.23828 19.9395ZM8.01953 10.9551C9.73828 10.9551 11.1445 9.58789 11.1445 7.83008C11.1445 6.11133 9.73828 4.70508 8.01953 4.70508C6.26172 4.70508 4.89453 6.11133 4.89453 7.83008C4.89453 9.58789 6.26172 10.9551 8.01953 10.9551Z" fill="#2C2E65"/>
</svg>
