<svg width="82" height="94" viewBox="0 0 82 94" fill="none" xmlns="http://www.w3.org/2000/svg">
<path d="M18.01 30C23.61 30 28.01 25.36 28.01 19.42V16.56C28.01 10.64 23.61 5.98 18.01 5.98C12.41 5.98 8.00998 10.62 8.00998 16.56V19.42C8.00998 25.34 12.41 30 18.01 30ZM12.01 16.58C12.01 12.9 14.65 10 18.01 10C21.37 10 24.01 12.88 24.01 16.58V19.44C24.01 23.12 21.37 26.02 18.01 26.02C14.65 26.02 12.01 23.14 12.01 19.44V16.58ZM2.74998 53.38L4.44998 57.14C4.44998 57.14 4.54999 57.32 4.60999 57.42C5.76999 59.18 6.84999 60.18 7.98999 60.78V94H11.99V61.88L15.39 62.58C15.45 63.14 15.61 63.7 15.93 64.2C16.63 65.32 17.83 66 19.15 66H27.99V94H31.99V66H33.17C34.63 66 35.93 65.18 36.57 63.86L38.47 60H39.07C41.25 60 43.29 58.68 44.23 56.64L45.59 53.74C46.19 52.46 46.09 50.98 45.35 49.8C45.03 49.28 44.59 48.88 44.09 48.58L45.59 45.5C46.19 44.3 46.11 42.9 45.41 41.76C44.71 40.64 43.51 39.96 42.19 39.96H35.59L32.27 35.96C29.73 32.88 26.77 32.16 22.75 32H11.23C3.46998 32 -0.0100098 38.6 -0.0100098 45.12C-0.0100098 47.68 0.809987 49.34 1.82999 51.44C2.10999 52.02 2.40998 52.64 2.74998 53.36V53.38ZM40.63 54.94C40.33 55.6 39.73 56 39.09 56H34.17C34.61 54.14 35.85 52.68 36.55 52L41.99 52.04L40.63 54.94ZM39.93 48H35.79C35.35 48 34.91 48.16 34.55 48.42C34.35 48.58 29.57 52.4 30.05 58.16C30.13 59.2 31.01 60 32.05 60H34.05L33.07 62H19.49L28.35 43.96H41.93L39.95 48H39.93ZM11.23 36H22.67C26.19 36.14 27.71 36.72 29.19 38.5L30.39 39.96H28.17C26.71 39.96 25.41 40.78 24.77 42.1L20.21 51.4L17.25 50.36C16.05 49.92 15.63 49.6 15.13 48.36L13.33 43.84L9.60999 45.32L11.41 49.84C12.43 52.4 13.93 53.4 15.87 54.12L18.41 55.02L16.57 58.74L11.51 57.72C10.21 57.54 9.40998 57.42 8.00998 55.36L6.36998 51.74C6.02998 50.98 5.70999 50.32 5.40999 49.72C4.44999 47.76 3.96999 46.78 3.96999 45.14C3.96999 40.92 5.86999 36.02 11.21 36.02L11.23 36ZM18.01 94H22.01V72H18.01V94ZM36.01 4H70.01V0H34.01C32.91 0 32.01 0.9 32.01 2V26H36.01V4ZM78.01 48H50.01V52H80.01C81.11 52 82.01 51.1 82.01 50V18H78.01V48ZM45.53 24.72L42.45 27.28L52.45 39.28C52.83 39.74 53.39 40 53.99 40H54.05C54.67 40 55.23 39.68 55.59 39.2L79.59 7.2L76.39 4.8L53.91 34.78L45.53 24.72Z" fill="#2C2E65"/>
</svg>
