<svg width="26" height="26" viewBox="0 0 26 26" fill="none" xmlns="http://www.w3.org/2000/svg">
<path d="M14.5296 26C14.5296 25.9188 14.5296 25.8429 14.5296 25.7671C14.5353 22.8215 14.5385 19.8759 14.5477 16.9303C14.5499 16.2011 14.6455 15.4844 14.8991 14.7955C15.2198 13.925 15.8012 13.3288 16.704 13.0705C17.1435 12.9445 17.5933 12.9363 18.0449 12.9463C19.0829 12.9692 19.8922 13.5568 20.2532 14.5358C20.5168 15.25 20.5946 15.9957 20.5978 16.7446C20.6103 19.7503 20.6038 22.756 20.6042 25.7613C20.6042 25.8372 20.6042 25.9131 20.6042 25.9964H25.9957V25.7767C25.9957 22.8426 26.0068 19.9085 25.9893 16.9747C25.9836 16.0057 25.923 15.036 25.8527 14.0692C25.7885 13.1828 25.587 12.3219 25.2513 11.4957C24.7113 10.1668 23.8031 9.19815 22.4501 8.69792C21.1339 8.21128 19.7702 8.09034 18.3887 8.32364C16.7058 8.60811 15.3728 9.44541 14.4743 10.9286C14.4489 10.9704 14.4019 10.9987 14.3651 11.0334C14.3498 11.0263 14.3344 11.0187 14.3191 11.0116V8.65713H9.20114V25.9993H14.5285L14.5296 26ZM5.76361 25.9996V8.65856H0.429844V25.9996H5.76361ZM6.23873 3.13022C6.23695 1.47316 4.94355 0.00322604 3.1126 5.65358e-06C1.3562 -0.00321474 -0.00568936 1.36974 1.78719e-05 3.13667C0.0060818 4.99662 1.48639 6.25758 3.10974 6.2583C4.83511 6.25937 6.23802 4.85635 6.23873 3.13022Z" fill="#2C2E65"/>
</svg>
